<svg width="18" height="20" viewBox="0 0 18 20" fill="none" xmlns="http://www.w3.org/2000/svg">
<path d="M9.00004 8.88896C10.0172 8.88896 11.0115 8.62829 11.8573 8.13993C12.703 7.65156 13.3622 6.95743 13.7514 6.14531C14.1407 5.33319 14.2425 4.43955 14.0441 3.57741C13.8456 2.71526 13.3558 1.92333 12.6366 1.30176C11.9173 0.680188 11.001 0.256893 10.0034 0.0854014C9.00574 -0.0860898 7.97168 0.00192571 7.03195 0.338318C6.09221 0.67471 5.28901 1.24437 4.72391 1.97526C4.1588 2.70615 3.85718 3.56545 3.85718 4.44448C3.85718 5.62323 4.39901 6.7537 5.36349 7.5872C6.32796 8.4207 7.63606 8.88896 9.00004 8.88896Z" fill="#6F6567"/>
<path d="M16.7143 20C17.0553 20 17.3823 19.883 17.6234 19.6746C17.8645 19.4662 18 19.1836 18 18.8889C18 16.8261 17.0518 14.8478 15.364 13.3892C13.6761 11.9305 11.3869 11.1111 9 11.1111C6.61305 11.1111 4.32387 11.9305 2.63604 13.3892C0.948211 14.8478 3.55683e-08 16.8261 0 18.8889C0 19.1836 0.135459 19.4662 0.376577 19.6746C0.617695 19.883 0.944722 20 1.28571 20H16.7143Z" fill="#6F6567"/>
</svg>
