<svg width="22" height="23" viewBox="0 0 22 23" fill="none" xmlns="http://www.w3.org/2000/svg">
<path d="M21 21.5L19 19.5M10.5 20.5C11.7476 20.5 12.9829 20.2543 14.1355 19.7769C15.2881 19.2994 16.3354 18.5997 17.2175 17.7175C18.0997 16.8354 18.7994 15.7881 19.2769 14.6355C19.7543 13.4829 20 12.2476 20 11C20 9.75244 19.7543 8.5171 19.2769 7.36451C18.7994 6.21191 18.0997 5.16464 17.2175 4.28249C16.3354 3.40033 15.2881 2.70056 14.1355 2.22314C12.9829 1.74572 11.7476 1.5 10.5 1.5C7.98044 1.5 5.56408 2.50089 3.78249 4.28249C2.00089 6.06408 1 8.48044 1 11C1 13.5196 2.00089 15.9359 3.78249 17.7175C5.56408 19.4991 7.98044 20.5 10.5 20.5V20.5Z" stroke="#F5EBEB" stroke-width="2" stroke-linecap="round" stroke-linejoin="round"/>
</svg>
