<svg width="19" height="30" viewBox="0 0 19 30" fill="none" xmlns="http://www.w3.org/2000/svg">
<path d="M18.3334 0.833423C18.3334 0.612409 18.2456 0.400447 18.0893 0.244167C17.933 0.0878866 17.7211 8.90726e-05 17.5001 8.90726e-05H13.3334C11.2353 -0.104426 9.18106 0.625742 7.6196 2.03106C6.05814 3.43637 5.11637 5.40258 5.00006 7.50009V12.0001H0.833394C0.612381 12.0001 0.400419 12.0879 0.244139 12.2442C0.0878586 12.4004 6.10352e-05 12.6124 6.10352e-05 12.8334V17.1668C6.10352e-05 17.3878 0.0878586 17.5997 0.244139 17.756C0.400419 17.9123 0.612381 18.0001 0.833394 18.0001H5.00006V29.1668C5.00006 29.3878 5.08786 29.5997 5.24414 29.756C5.40042 29.9123 5.61238 30.0001 5.83339 30.0001H10.8334C11.0544 30.0001 11.2664 29.9123 11.4227 29.756C11.5789 29.5997 11.6667 29.3878 11.6667 29.1668V18.0001H16.0334C16.2187 18.0028 16.3996 17.9436 16.5475 17.8319C16.6954 17.7202 16.8019 17.5624 16.8501 17.3834L18.0501 13.0501C18.0832 12.927 18.0877 12.7979 18.0631 12.6727C18.0385 12.5476 17.9855 12.4298 17.9083 12.3284C17.831 12.2269 17.7314 12.1446 17.6173 12.0877C17.5032 12.0308 17.3776 12.0008 17.2501 12.0001H11.6667V7.50009C11.7082 7.08755 11.9019 6.70528 12.2101 6.42791C12.5183 6.15055 12.9188 5.99801 13.3334 6.00009H17.5001C17.7211 6.00009 17.933 5.91229 18.0893 5.75601C18.2456 5.59973 18.3334 5.38777 18.3334 5.16676V0.833423Z" fill="#A93B59"/>
</svg>
